<?xml version="1.0" standalone="no"?>
<!DOCTYPE svg PUBLIC "-//W3C//DTD SVG 20010904//EN"
 "http://www.w3.org/TR/2001/REC-SVG-20010904/DTD/svg10.dtd">
<svg version="1.0" xmlns="http://www.w3.org/2000/svg"
 width="734.000000pt" height="734.000000pt" viewBox="0 0 734.000000 734.000000"
 preserveAspectRatio="xMidYMid meet">
<metadata>
Created by potrace 1.11, written by Peter Selinger 2001-2013
</metadata>
<g transform="translate(0.000000,734.000000) scale(0.100000,-0.100000)"
fill="#000000" stroke="none">
<path d="M425 6595 c-148 -33 -282 -160 -326 -310 -21 -75 -21 -3185 0 -3260
32 -107 117 -213 217 -269 98 -56 100 -56 1097 -56 870 0 918 -1 913 -17 -3
-10 -37 -110 -74 -223 l-69 -205 -370 -5 -370 -5 -49 -30 c-166 -103 -141
-335 43 -401 30 -10 183 -13 761 -14 l722 0 0 750 0 750 -1120 0 -1120 0 0
1355 0 1355 2105 0 2105 0 0 -280 0 -280 300 0 300 0 0 373 c0 406 -6 463 -56
551 -35 63 -118 147 -174 177 -110 58 79 53 -2450 56 -1906 1 -2336 -1 -2385
-12z"/>
<path d="M4124 5356 c-133 -32 -234 -137 -263 -274 -7 -36 -11 -260 -11 -702
l0 -650 180 0 180 0 0 615 0 616 25 24 24 25 1271 0 1271 0 24 -25 25 -24 0
-1216 0 -1216 -25 -24 -24 -25 -956 0 -955 0 0 -480 0 -481 1023 3 1022 3 56
26 c109 52 189 149 208 253 17 95 15 3213 -3 3287 -32 138 -135 238 -274 268
-80 17 -2728 14 -2798 -3z m1491 -3135 c61 -28 105 -70 131 -126 56 -119 4
-252 -121 -311 -121 -57 -256 -1 -316 131 -65 142 60 325 221 325 25 0 63 -9
85 -19z"/>
<path d="M3194 3629 c-65 -19 -127 -71 -159 -133 l-30 -60 -3 -1220 c-3 -1347
-6 -1275 59 -1356 17 -21 54 -51 82 -66 l52 -29 710 0 710 0 55 31 c60 34 113
100 130 164 7 26 9 446 8 1262 -3 1187 -4 1224 -22 1262 -25 50 -75 100 -129
128 l-42 23 -695 2 c-401 1 -708 -2 -726 -8z m1324 -275 l22 -15 0 -914 0
-914 -22 -15 c-20 -14 -95 -16 -613 -16 -518 0 -593 2 -613 16 l-22 15 0 914
0 914 22 15 c20 14 95 16 613 16 518 0 593 -2 613 -16z m-523 -2077 c125 -71
125 -243 0 -314 -129 -73 -288 44 -261 191 15 81 94 146 176 146 28 0 60 -9
85 -23z"/>
</g>
</svg>
